<svg aria-hidden="true" style="position: absolute; width: 0; height: 0; overflow: hidden;" version="1.1" xmlns="http://www.w3.org/2000/svg" xmlns:xlink="http://www.w3.org/1999/xlink">
<defs>
<symbol id="icon-Group-54-1--" viewBox="0 0 32 32">
<path d="M17.856 6.646c-0.554-0.815-1.043-1.565-1.5-2.25-0.065-0.098-0.163-0.196-0.261-0.261-0.391-0.261-0.913-0.13-1.174 0.261-0.424 0.685-0.913 1.402-1.5 2.249-2.575 3.782-6.423 9.487-6.423 12.747 0 2.38 0.978 4.532 2.543 6.096 1.565 1.532 3.717 2.51 6.096 2.51s4.532-0.978 6.096-2.543c1.565-1.565 2.543-3.717 2.543-6.096 0-3.26-3.847-8.933-6.422-12.715zM20.562 24.283c-1.271 1.271-2.999 2.021-4.923 2.021s-3.651-0.782-4.923-2.021c-1.271-1.271-2.021-2.999-2.021-4.923 0-2.739 3.684-8.183 6.129-11.802 0.293-0.424 0.554-0.848 0.815-1.206 0.261 0.359 0.522 0.782 0.815 1.206 2.445 3.651 6.129 9.063 6.129 11.802 0 1.924-0.782 3.651-2.021 4.923z"></path>
<path d="M20.693 18.774c-0.456-0.033-0.848 0.326-0.88 0.782-0.033 0.717-0.261 1.402-0.619 1.989s-0.88 1.108-1.5 1.434c-0.391 0.228-0.554 0.75-0.326 1.141 0.261 0.456 0.782 0.587 1.174 0.359 0.88-0.489 1.598-1.206 2.087-2.021 0.522-0.815 0.815-1.793 0.848-2.804 0.033-0.456-0.326-0.848-0.782-0.88z"></path>
</symbol>
<symbol id="icon-Group-54--" viewBox="0 0 32 32">
<path d="M15.999 24.033c-0.452 0-0.819 0.367-0.819 0.819v2.329c0 0.452 0.367 0.819 0.819 0.819s0.819-0.367 0.819-0.819v-2.328c0-0.452-0.367-0.819-0.819-0.819z"></path>
<path d="M15.999 7.967c0.452 0 0.819-0.367 0.819-0.819v-2.329c0-0.452-0.367-0.819-0.819-0.819s-0.819 0.367-0.819 0.819v2.329c0 0.452 0.367 0.819 0.819 0.819z"></path>
<path d="M9.162 21.68l-1.647 1.646c-0.32 0.32-0.32 0.838-0 1.158 0.16 0.16 0.37 0.24 0.579 0.24s0.419-0.080 0.579-0.24l1.647-1.646c0.32-0.32 0.32-0.838 0-1.158s-0.838-0.32-1.158-0z"></path>
<path d="M22.259 10.559c0.209 0 0.419-0.080 0.579-0.24l1.647-1.646c0.32-0.32 0.32-0.838 0-1.158s-0.838-0.32-1.158-0l-1.647 1.646c-0.32 0.32-0.32 0.838-0 1.158 0.16 0.16 0.369 0.24 0.579 0.24z"></path>
<path d="M7.966 16c0-0.452-0.367-0.819-0.819-0.819h-2.329c-0.452 0-0.819 0.367-0.819 0.819s0.367 0.819 0.819 0.819h2.329c0.452 0 0.819-0.367 0.819-0.819z"></path>
<path d="M27.181 15.181h-2.33c-0.452 0-0.819 0.367-0.819 0.819s0.367 0.819 0.819 0.819h2.33c0.452 0 0.819-0.367 0.819-0.819s-0.367-0.819-0.819-0.819z"></path>
<path d="M9.161 10.319c0.16 0.16 0.37 0.24 0.579 0.24s0.419-0.080 0.579-0.24c0.32-0.32 0.32-0.838 0-1.158l-1.646-1.646c-0.32-0.32-0.838-0.32-1.158 0s-0.32 0.838 0 1.158l1.646 1.646z"></path>
<path d="M22.839 21.68c-0.32-0.32-0.838-0.32-1.158-0s-0.32 0.838-0 1.158l1.646 1.646c0.16 0.16 0.37 0.24 0.579 0.24s0.419-0.080 0.579-0.24c0.32-0.32 0.32-0.838 0-1.158l-1.646-1.646z"></path>
<path d="M16 9.626c-3.515 0-6.374 2.86-6.374 6.375s2.859 6.374 6.374 6.374c3.515 0 6.375-2.86 6.375-6.374s-2.86-6.375-6.375-6.375zM16 20.737c-2.612 0-4.736-2.125-4.736-4.736s2.125-4.737 4.736-4.737c2.612 0 4.737 2.125 4.737 4.737s-2.125 4.736-4.737 4.736z"></path>
</symbol>
<symbol id="icon-Group-53" viewBox="0 0 32 32">
<path d="M3.030 16.791c1.578 1.353 3.365 2.887 6.824 2.887s5.247-1.534 6.824-2.887c1.492-1.28 2.78-2.385 5.468-2.385s3.976 1.105 5.468 2.385c0.437 0.375 1.094 0.324 1.469-0.113s0.324-1.094-0.113-1.469c-1.578-1.353-3.366-2.887-6.824-2.887s-5.247 1.534-6.824 2.887c-1.492 1.28-2.78 2.385-5.468 2.385s-3.976-1.105-5.467-2.385c-0.437-0.375-1.094-0.324-1.469 0.112s-0.324 1.094 0.112 1.469z"></path>
<path d="M3.030 11.093c1.577 1.353 3.365 2.887 6.824 2.887s5.247-1.534 6.824-2.887c1.492-1.28 2.78-2.385 5.468-2.385s3.976 1.105 5.468 2.385c0.437 0.375 1.094 0.324 1.469-0.113s0.324-1.094-0.113-1.469c-1.578-1.353-3.366-2.887-6.824-2.887s-5.247 1.534-6.824 2.887c-1.492 1.28-2.78 2.385-5.468 2.385s-3.976-1.105-5.467-2.385c-0.437-0.375-1.094-0.324-1.469 0.112s-0.324 1.094 0.112 1.469z"></path>
<path d="M28.97 20.907c-1.578-1.353-3.366-2.887-6.824-2.887s-5.247 1.534-6.824 2.887c-1.492 1.28-2.78 2.385-5.468 2.385s-3.976-1.105-5.467-2.385l-0-0c-0.437-0.374-1.094-0.324-1.469 0.113s-0.324 1.094 0.112 1.469c1.577 1.353 3.365 2.887 6.824 2.887s5.247-1.534 6.824-2.887c1.492-1.279 2.78-2.385 5.468-2.385s3.976 1.105 5.468 2.385c0.437 0.375 1.094 0.324 1.469-0.112s0.324-1.094-0.113-1.469z"></path>
</symbol>
<symbol id="icon-Group-59" viewBox="0 0 32 32">
<path d="M21.217 17.043h-20.174c-0.576 0-1.043-0.467-1.043-1.043s0.467-1.043 1.043-1.043h20.174c0.576 0 1.043 0.467 1.043 1.043s-0.467 1.043-1.043 1.043z"></path>
<path d="M15.652 22.609c-0.267 0-0.534-0.101-0.738-0.306-0.408-0.408-0.408-1.069 0-1.476l4.828-4.828-4.828-4.828c-0.408-0.408-0.408-1.069 0-1.476s1.069-0.408 1.476 0l5.565 5.565c0.408 0.408 0.408 1.068 0 1.476l-5.565 5.565c-0.205 0.206-0.472 0.307-0.739 0.307z"></path>
<path d="M16.696 31.304c-6.332 0-11.922-3.809-14.244-9.706-0.211-0.534 0.053-1.141 0.588-1.352 0.534-0.209 1.142 0.051 1.354 0.59 2.005 5.091 6.834 8.381 12.302 8.381 7.288 0 13.218-5.93 13.218-13.217s-5.93-13.217-13.218-13.217c-5.468 0-10.297 3.29-12.302 8.381-0.213 0.539-0.82 0.799-1.354 0.59-0.536-0.211-0.8-0.818-0.588-1.352 2.322-5.897 7.912-9.706 14.244-9.706 8.438 0 15.305 6.866 15.305 15.304s-6.866 15.304-15.305 15.304z"></path>
</symbol>
<symbol id="icon-close" viewBox="0 0 20 20">
<path d="M10 8.586l-7.071-7.071-1.414 1.414 7.071 7.071-7.071 7.071 1.414 1.414 7.071-7.071 7.071 7.071 1.414-1.414-7.071-7.071 7.071-7.071-1.414-1.414-7.071 7.071z"></path>
</symbol>
</defs>
</svg>
